<svg width="719" height="326" viewBox="0 0 719 326" fill="none" xmlns="http://www.w3.org/2000/svg">
<g opacity="0.2">
<path d="M149.336 6.96013C146.017 3.97192 140.254 1.22306 130.268 1.01195C107.814 0.537704 113.839 14.3162 107.814 17.6434C101.79 20.9691 100.146 15.7419 94.1235 19.0691C88.0989 22.3933 90.8371 29.0462 85.9073 29.9976C80.9793 30.9476 74.4063 25.7205 68.3834 29.0462C62.3587 32.3719 62.3587 35.2233 59.6206 35.2233C56.8824 35.2233 51.4061 33.3218 48.1196 35.2233C44.8348 37.1248 41 39.5005 41 39.5005H99.8038" stroke="black" stroke-width="2" stroke-miterlimit="10" stroke-linecap="round" stroke-linejoin="round"/>
<path d="M107.334 39.5005H179.557C179.557 39.5005 181.2 35.2248 175.175 32.3733C169.152 29.5219 166.414 31.8976 164.222 29.5219C162.272 27.4064 168.573 22.2759 158.374 16.8168" stroke="black" stroke-width="2" stroke-miterlimit="10" stroke-linecap="round" stroke-linejoin="round"/>
<path d="M496.307 157.811H515.654" stroke="black" stroke-width="2" stroke-miterlimit="10" stroke-linecap="round" stroke-linejoin="round"/>
<path d="M600.776 188.811H717.011C717.011 188.811 720.971 178.502 706.448 171.628C691.927 164.758 685.327 170.484 680.046 164.758C674.764 159.029 694.567 144.138 654.959 129.247C654.959 129.247 652.32 97.1749 598.191 96.0287C574.833 95.5366 564.259 101.44 558.62 108.96" stroke="black" stroke-width="2" stroke-miterlimit="10" stroke-linecap="round" stroke-linejoin="round"/>
<path d="M551.573 124.779C549.918 129.662 548.128 133.878 544.064 136.121C529.543 144.14 525.582 131.539 511.059 139.558C496.535 147.576 503.138 163.611 491.257 165.903C479.375 168.193 463.533 155.595 449.01 163.611C434.486 171.63 434.486 178.502 427.886 178.502C421.286 178.502 408.084 173.922 400.163 178.502C392.242 183.084 383 188.813 383 188.813H531.449" stroke="black" stroke-width="2" stroke-miterlimit="10" stroke-linecap="round" stroke-linejoin="round"/>
<g opacity="0.2">
<path d="M10.9918 275.01C16.0091 270.493 24.7201 266.339 39.8161 266.018C73.7586 265.301 64.6539 286.13 73.7586 291.159C82.8659 296.187 85.3499 288.285 94.4572 293.315C103.562 298.342 99.4253 308.397 106.875 309.833C114.327 311.271 124.261 303.369 133.365 308.397C142.473 313.424 142.473 317.734 146.612 317.734C150.751 317.734 159.029 314.86 163.997 317.734C168.963 320.609 174.76 324.2 174.76 324.2H85.868" stroke="black" stroke-width="2" stroke-miterlimit="10" stroke-linecap="round" stroke-linejoin="round"/>
<path d="M1.64558 287.872C2.45374 287.533 3.31371 287.189 4.21771 286.85C4.21771 286.85 4.50523 283.382 7.26904 279.276" stroke="black" stroke-width="2" stroke-miterlimit="10" stroke-linecap="round" stroke-linejoin="round"/>
<path d="M74.4858 324.2H-34.6904C-34.6904 324.2 -37.1744 317.734 -28.0697 313.424C-18.9624 309.116 -14.8232 312.707 -11.5103 309.116C-8.56517 305.918 -18.0869 298.162 -2.66978 289.908" stroke="black" stroke-width="2" stroke-miterlimit="10" stroke-linecap="round" stroke-linejoin="round"/>
</g>
</g>
</svg>
