<svg width="233" height="484" viewBox="0 0 233 484" fill="none" xmlns="http://www.w3.org/2000/svg">
<path d="M97.3692 347.545C97.3692 347.545 136.588 351.424 156.465 375.738C156.465 375.738 177.466 347.572 215.185 348.15C226.131 334.957 232.715 318.014 232.72 299.533C232.736 257.433 198.618 223.291 156.517 223.277C114.418 223.262 80.2765 257.38 80.2613 299.482C80.2543 317.731 86.6657 334.483 97.3575 347.61L97.3692 347.545Z" fill="black"/>
<g opacity="0.300003">
<g opacity="0.300003">
<path opacity="0.300003" d="M97.3692 347.545C97.3692 347.545 136.588 351.424 156.465 375.738C156.465 375.738 177.466 347.572 215.185 348.15C226.131 334.957 232.715 318.014 232.72 299.533C232.736 257.433 198.618 223.291 156.517 223.277C114.418 223.262 80.2765 257.38 80.2613 299.482C80.2543 317.731 86.6657 334.483 97.3575 347.61L97.3692 347.545Z" fill="white"/>
</g>
</g>
<path d="M158.832 504L155.167 228.652L154.25 504H158.832Z" fill="#717171"/>
<path d="M157.153 368.326C157.153 368.326 170.392 344.496 194.223 337.215C194.223 337.215 169.069 343.172 156.491 363.693L157.153 368.326Z" fill="#717171"/>
<path d="M155.71 301.451C155.71 301.451 170.393 276.976 194.223 269.693C194.223 269.693 168.287 277.157 155.71 297.678V301.451Z" fill="#717171"/>
<path d="M156.225 336.264C156.225 336.264 170.393 310.736 194.223 303.454C194.223 303.454 168.459 310.597 155.881 331.118L156.225 336.264Z" fill="#717171"/>
<path d="M155.191 318.018C155.191 318.018 142.416 294.187 119.42 286.905C119.42 286.905 143.694 292.863 155.83 313.383L155.191 318.018Z" fill="#717171"/>
<path d="M155.191 351.115C155.191 351.115 142.416 327.284 119.42 320.003C119.42 320.003 143.694 325.961 155.83 346.481L155.191 351.115Z" fill="#717171"/>
<path d="M-38.6897 211.08C-38.6897 211.08 27.9269 217.671 61.6915 258.967C61.6915 258.967 97.3621 211.128 161.433 212.107C180.025 189.699 191.208 160.921 191.219 129.529C191.244 58.0161 133.293 0.0233765 61.7801 6.10352e-05C-9.73239 -0.0255737 -67.7239 57.9274 -67.7495 129.439C-67.76 160.438 -56.87 188.893 -38.7095 211.191L-38.6897 211.08Z" fill="black"/>
<g opacity="0.300003">
<g opacity="0.300003">
<path opacity="0.300003" d="M-38.6894 211.08C-38.6894 211.08 27.9272 217.671 61.6918 258.967C61.6918 258.967 97.3624 211.128 161.433 212.107C180.025 189.699 191.209 160.921 191.219 129.529C191.245 58.0161 133.293 0.0234375 61.7804 0.00012207C-9.73209 -0.0255127 -67.7236 57.9275 -67.7492 129.439C-67.7597 160.438 -56.8697 188.893 -38.7092 211.191L-38.6894 211.08Z" fill="white"/>
</g>
</g>
<path d="M66.0725 504L59.4863 9.129L57.8391 504H66.0725Z" fill="#717171"/>
<path d="M62.8603 246.38C62.8603 246.38 85.3479 205.901 125.827 193.533C125.827 193.533 83.0992 203.652 61.7354 238.509L62.8603 246.38Z" fill="#717171"/>
<path d="M60.4082 132.786C60.4082 132.786 85.3485 91.2107 125.826 78.8426C125.826 78.8426 81.7721 91.5208 60.4082 126.377V132.786Z" fill="#717171"/>
<path d="M61.2814 191.918C61.2814 191.918 85.3485 148.557 125.826 136.188C125.826 136.188 82.0624 148.322 60.6985 183.178L61.2814 191.918Z" fill="#717171"/>
<path d="M59.526 160.925C59.526 160.925 37.8264 120.446 -1.23175 108.078C-1.23175 108.078 39.9957 118.197 60.6112 153.054L59.526 160.925Z" fill="#717171"/>
<path d="M59.526 217.145C59.526 217.145 37.8264 176.666 -1.23175 164.298C-1.23175 164.298 39.9957 174.418 60.6112 209.275L59.526 217.145Z" fill="#717171"/>
</svg>
